<?xml version="1.0" encoding="iso-8859-1"?>
<!-- Uploaded to: SVG Repo, www.svgrepo.com, Generator: SVG Repo Mixer Tools -->
<svg fill="#000000" version="1.1" id="Layer_1" xmlns="http://www.w3.org/2000/svg" xmlns:xlink="http://www.w3.org/1999/xlink" 
	 viewBox="0 0 491.63 491.63" xml:space="preserve">
<g>
	<g>
		<path d="M375.069,264.599l-47.995,47.995L301.55,287.07l98.145-98.143c23.996-0.682,47.189-10.518,64.214-27.548
			c27.055-27.055,35.13-67.41,20.57-102.81l-5.845-14.21l-57.81,57.805l-28.22-3.135l-3.135-28.225l57.805-57.805l-14.21-5.845
			c-35.385-14.56-75.75-6.495-102.81,20.565c-17.021,17.016-26.826,40.196-27.519,64.188L204.56,190.08L87.729,73.249v-34.16
			c0-3.595-1.885-6.93-4.97-8.78L34.764,1.514c-4.035-2.415-9.185-1.78-12.51,1.54l-19.2,19.2c-3.325,3.32-3.96,8.48-1.54,12.51
			l28.8,47.995c1.85,3.085,5.185,4.97,8.78,4.97h34.155L190.08,204.56l-98.184,98.182c-23.946,0.758-47.165,10.486-64.177,27.507
			c-27.055,27.06-35.13,67.415-20.565,102.81l5.845,14.21l57.81-57.805l28.215,3.135l3.14,28.225l-57.805,57.805l14.21,5.845
			c11.7,4.815,23.94,7.155,36.07,7.155c24.555,0,48.63-9.605,66.74-27.72c17.021-17.021,26.826-40.201,27.519-64.188l98.172-98.171
			l25.524,25.524l-47.995,47.995l93.625,93.625c15.23,15.23,35.235,22.84,55.235,22.84c20.005,0,40.01-7.61,55.235-22.84
			c14.755-14.755,22.88-34.37,22.88-55.235s-8.125-40.485-22.88-55.235L375.069,264.599z M67.249,67.249h-22.36l-21.7-36.17
			l7.895-7.89l36.165,21.7V67.249z M344.734,42.199c14.19-14.19,33.04-21.71,52.28-21.71c4.235,0,8.485,0.365,12.71,1.1
			l-41.695,41.695l6.025,54.285l54.29,6.035l41.7-41.69c4.085,23.415-3.305,47.675-20.615,64.985
			c-14.185,14.175-33.66,22.275-53.865,21.66c-19.23-0.42-37.28-8.11-50.83-21.66c-1.694-1.694-3.296-3.459-4.804-5.288
			c-10.555-12.798-16.493-28.72-16.856-45.541C322.656,76.017,330.55,56.379,344.734,42.199z M146.899,449.429
			c-17.31,17.32-41.55,24.69-64.99,20.61l41.695-41.695l-6.03-54.285l-54.285-6.035l-41.7,41.695
			c-4.085-23.415,3.3-47.675,20.61-64.99c14.185-14.18,33.63-22.4,53.87-21.66c19.23,0.42,37.28,8.11,50.83,21.66
			c5.081,5.083,9.339,10.798,12.699,16.971c5.599,10.286,8.702,21.843,8.961,33.858
			C168.978,415.607,161.084,435.245,146.899,449.429z M186.099,373.559c-0.149-0.581-0.4-1.127-0.559-1.705
			c-0.797-2.886-1.726-5.721-2.791-8.509c-0.301-0.789-0.559-1.591-0.881-2.372c-1.411-3.417-3.021-6.744-4.828-9.975
			c-0.414-0.741-0.888-1.444-1.323-2.174c-1.525-2.561-3.171-5.049-4.943-7.466c-0.628-0.857-1.249-1.711-1.907-2.549
			c-2.332-2.968-4.785-5.856-7.489-8.559c-2.709-2.71-5.604-5.167-8.578-7.503c-0.821-0.644-1.658-1.252-2.497-1.867
			c-2.446-1.794-4.963-3.461-7.556-5.002c-0.702-0.417-1.379-0.874-2.091-1.272c-3.246-1.817-6.589-3.435-10.023-4.852
			c-0.754-0.311-1.529-0.558-2.291-0.849c-2.814-1.077-5.678-2.016-8.593-2.819c-0.569-0.157-1.105-0.404-1.677-0.55l187.46-187.465
			c0.149,0.585,0.402,1.134,0.563,1.715c0.795,2.881,1.724,5.711,2.786,8.494c0.302,0.791,0.559,1.596,0.883,2.378
			c1.411,3.416,3.021,6.743,4.827,9.974c0.416,0.742,0.891,1.448,1.326,2.18c1.523,2.557,3.167,5.043,4.937,7.457
			c0.629,0.859,1.251,1.715,1.91,2.554c2.332,2.967,4.784,5.855,7.489,8.558c2.709,2.71,5.604,5.167,8.578,7.503
			c0.821,0.644,1.657,1.252,2.497,1.867c2.446,1.794,4.963,3.461,7.556,5.002c0.702,0.417,1.379,0.874,2.091,1.272
			c3.246,1.817,6.589,3.435,10.023,4.852c0.754,0.311,1.529,0.558,2.291,0.849c2.814,1.077,5.678,2.016,8.593,2.819
			c0.569,0.157,1.105,0.404,1.677,0.55L186.099,373.559z M454.214,454.214c-22.47,22.47-59.03,22.47-81.51,0l-79.145-79.145
			l81.51-81.51l79.145,79.145c10.885,10.885,16.88,25.36,16.88,40.755S465.099,443.324,454.214,454.214z"/>
	</g>
</g>
<g>
	<g>
		
			<rect x="401.898" y="401.869" transform="matrix(0.7071 -0.7071 0.7071 0.7071 -170.6928 412.1292)" width="20.48" height="20.48"/>
	</g>
</g>
<g>
	<g>
		
			<rect x="365.681" y="365.69" transform="matrix(0.7071 -0.7071 0.7071 0.7071 -155.7183 375.9235)" width="20.48" height="20.48"/>
	</g>
</g>
</svg>