<svg version="1.1" id="Layer_1" xmlns="http://www.w3.org/2000/svg" xmlns:xlink="http://www.w3.org/1999/xlink" x="0px" y="0px"
	 width="100%" viewBox="0 0 159 165" enable-background="new 0 0 159 165" xml:space="preserve">
<path fill="#FAFAFA" opacity="1.000000" stroke="none" 
	d="
M1.000000,70.000000 
	C1.000000,46.666672 1.000000,23.833347 1.000000,1.000015 
	C53.999981,1.000010 106.999962,1.000010 159.999954,1.000005 
	C159.999969,55.999958 159.999969,110.999916 159.999985,165.999908 
	C107.000053,165.999939 54.000111,165.999939 1.000082,165.999969 
	C1.000000,134.166672 1.000000,102.333336 1.000000,70.000000 
M102.390045,23.225195 
	C96.521164,27.858263 93.193588,19.974623 87.955917,21.069349 
	C88.166359,19.017830 88.240242,17.699385 88.444267,16.401398 
	C90.458748,3.585235 90.464722,3.632686 77.358932,3.591778 
	C60.755432,3.539953 64.876915,2.665246 61.946365,17.333384 
	C61.640705,18.863291 60.698418,20.811975 59.459229,21.500702 
	C56.478729,23.157227 53.146431,24.180775 49.750675,25.542002 
	C47.331409,22.324654 44.963478,19.140009 42.556160,15.985421 
	C40.645432,13.481565 38.465176,13.317247 36.235809,15.516251 
	C32.208195,19.489012 28.236530,23.518578 24.249353,27.532223 
	C22.042355,29.753872 21.738268,31.996384 23.875853,34.552292 
	C26.005232,37.098389 28.049500,39.743450 29.836180,42.533939 
	C30.498491,43.568359 30.813227,45.302746 30.436193,46.434704 
	C29.352488,49.688301 27.834507,52.797253 26.382835,56.208214 
	C22.800581,55.752853 19.179176,55.397629 15.595957,54.809677 
	C11.381480,54.118145 9.745676,55.951439 9.840257,60.011917 
	C9.944877,64.503380 10.196123,69.026070 9.809608,73.485420 
	C9.345213,78.843300 11.439770,80.721542 16.740332,81.225014 
	C26.629911,82.164375 30.266508,86.105011 30.445904,95.243568 
	C29.236643,96.276390 28.027384,97.309212 26.248531,98.586456 
	C25.829798,99.021484 25.411064,99.456512 24.410555,100.018997 
	C23.514931,100.771309 22.619305,101.523621 21.064188,102.825928 
	C19.897116,105.161995 19.173433,107.325012 23.001398,107.658325 
	C23.001398,107.658325 23.059248,107.691582 22.353243,107.991951 
	C22.892944,108.687912 23.432646,109.383873 24.176821,110.699959 
	C25.763832,112.183907 27.350843,113.667854 29.107397,115.695847 
	C29.690899,116.149422 30.274401,116.602997 31.139971,117.645584 
	C32.232494,118.671623 33.325012,119.697662 34.921574,121.191933 
	C37.397301,120.473473 40.451363,120.433014 42.239124,118.908035 
	C47.377583,114.524902 52.303375,111.690842 58.668495,116.489113 
	C59.516018,117.128006 60.785316,117.207413 61.849060,117.542702 
	C61.849060,119.179283 62.037174,120.681473 61.819557,122.122391 
	C59.930916,134.627731 59.909367,134.659698 72.292526,134.615601 
	C88.140038,134.559158 86.006699,136.322739 88.237442,120.858528 
	C88.438301,119.466087 89.338806,117.628006 90.466141,117.020126 
	C93.618332,115.320412 97.060097,114.157753 100.475273,112.746933 
	C103.069801,116.079865 105.554741,119.272018 108.039673,122.464180 
	C109.743149,108.370766 114.623917,93.933250 100.782448,82.979233 
	C99.991211,84.080917 99.159538,85.258736 98.307716,86.421791 
	C91.529709,95.676285 79.569069,100.046387 68.264214,97.403770 
	C56.916969,94.751244 47.933193,85.267883 46.387989,73.553818 
	C44.793560,61.466530 48.996841,51.617897 59.324600,44.854103 
	C70.569809,37.489464 84.242210,38.714596 94.115547,47.536949 
	C95.485146,48.760765 97.115868,52.267075 99.531128,47.807014 
	C99.708046,47.465904 99.884972,47.124794 100.676918,46.280991 
	C103.358002,41.527500 108.351410,42.186069 112.371689,42.210857 
	C118.225441,42.246952 123.480324,41.482571 127.235580,36.862385 
	C128.369751,35.466984 128.938858,31.919102 128.022049,30.841164 
	C123.918198,26.016144 119.307243,21.587547 114.547600,17.392218 
	C113.820534,16.751348 111.354492,18.083361 109.630020,18.642879 
	C109.630020,18.642879 109.492195,18.710205 108.814659,18.470655 
	C107.922508,19.221054 107.030350,19.971451 105.620361,20.925159 
	C104.777603,21.630732 103.934845,22.336302 102.390045,23.225195 
M146.515945,163.238678 
	C147.878555,161.197433 149.863235,159.316788 150.442383,157.073303 
	C151.127518,154.419235 150.625381,151.451721 150.592514,148.620621 
	C150.500717,140.712021 147.878769,134.038513 141.351379,129.125198 
	C140.289871,128.326187 139.379959,126.847412 139.117905,125.539040 
	C136.636017,113.148293 136.805923,100.726631 139.170532,88.336273 
	C139.371338,87.284019 139.954330,85.981857 140.782928,85.421074 
	C151.720581,78.018692 151.088806,66.845413 150.347687,55.786659 
	C150.055557,51.427799 147.234665,50.187893 141.803558,50.588608 
	C137.455200,50.909435 138.749603,54.078884 138.468246,56.479202 
	C138.352829,57.463856 138.482513,58.475143 138.464111,59.473640 
	C138.406189,62.617950 131.123260,69.307671 128.095062,69.010750 
	C123.693306,68.579163 118.257477,62.154507 118.261253,57.388088 
	C118.266769,50.425652 117.715988,50.081623 110.941505,50.715492 
	C107.746895,51.014404 106.422134,52.735027 106.375740,55.447475 
	C106.287720,60.594059 105.817505,65.906937 106.895668,70.847481 
	C107.804146,75.010468 109.784515,79.827492 112.902000,82.408195 
	C117.355492,86.094856 118.336861,90.450905 118.852066,95.396881 
	C119.231163,99.036194 119.664841,102.729645 119.442467,106.360275 
	C118.838783,116.216393 120.529099,126.839981 110.761452,133.929825 
	C109.415947,134.906448 108.277390,136.942001 108.090004,138.605255 
	C107.315628,145.478592 106.389610,152.416138 106.622726,159.292679 
	C106.774017,163.755356 111.040962,163.843933 114.741066,163.744003 
	C118.995369,163.629089 118.194633,160.611389 118.275757,158.048630 
	C118.312630,156.883835 118.268692,155.716705 118.287018,154.551041 
	C118.335579,151.462387 125.762405,144.677948 128.730789,145.000687 
	C133.013138,145.466278 138.460251,152.073090 138.471329,156.814987 
	C138.487991,163.948288 138.487991,163.948288 146.515945,163.238678 
M78.282761,84.035278 
	C82.194008,84.720459 84.930382,83.386200 86.299828,79.507675 
	C86.625099,78.586449 87.152878,77.673004 87.795486,76.937759 
	C92.386543,71.684967 91.673691,66.934593 87.935608,61.167843 
	C84.884636,56.461098 82.255402,54.153702 76.167030,53.913002 
	C68.513748,53.610439 64.692764,56.326050 61.377224,62.843483 
	C59.032845,67.451881 58.964531,70.478004 61.181820,75.234489 
	C64.677696,82.733765 69.564171,85.493378 78.282761,84.035278 
z"/>
<path fill="#030303" opacity="1.000000" stroke="none" 
	d="
M30.857903,117.056564 
	C30.274401,116.602997 29.690899,116.149422 29.039299,115.032005 
	C29.099585,110.846695 27.695967,109.111061 23.972343,110.079842 
	C23.432646,109.383873 22.892944,108.687912 22.609287,107.614403 
	C22.745190,107.136322 22.625044,107.035789 22.504898,106.935257 
	C22.661598,107.197479 22.818298,107.459694 22.974998,107.721916 
	C19.173433,107.325012 19.897116,105.161995 21.564806,102.903976 
	C26.175707,104.920593 24.546530,101.423492 24.992329,99.891541 
	C25.411064,99.456512 25.829798,99.021484 26.660648,98.790573 
	C30.806656,100.198250 30.702669,97.440460 31.046461,95.144852 
	C30.266508,86.105011 26.629911,82.164375 16.740332,81.225014 
	C11.439770,80.721542 9.345213,78.843300 9.809608,73.485420 
	C10.196123,69.026070 9.944877,64.503380 9.840257,60.011917 
	C9.745676,55.951439 11.381480,54.118145 15.595957,54.809677 
	C19.179176,55.397629 22.800581,55.752853 26.382835,56.208214 
	C27.834507,52.797253 29.352488,49.688301 30.436193,46.434704 
	C30.813227,45.302746 30.498491,43.568359 29.836180,42.533939 
	C28.049500,39.743450 26.005232,37.098389 23.875853,34.552292 
	C21.738268,31.996384 22.042355,29.753872 24.249353,27.532223 
	C28.236530,23.518578 32.208195,19.489012 36.235809,15.516251 
	C38.465176,13.317247 40.645432,13.481565 42.556160,15.985421 
	C44.963478,19.140009 47.331409,22.324654 49.750675,25.542002 
	C53.146431,24.180775 56.478729,23.157227 59.459229,21.500702 
	C60.698418,20.811975 61.640705,18.863291 61.946365,17.333384 
	C64.876915,2.665246 60.755432,3.539953 77.358932,3.591778 
	C90.464722,3.632686 90.458748,3.585235 88.444267,16.401398 
	C88.240242,17.699385 88.166359,19.017830 87.955917,21.069349 
	C93.193588,19.974623 96.521164,27.858263 103.062012,23.281660 
	C104.968964,23.137840 106.203949,22.937555 107.438927,22.737270 
	C107.005348,22.065460 106.571770,21.393654 106.138191,20.721848 
	C107.030350,19.971451 107.922508,19.221054 109.289886,18.763832 
	C109.954872,19.052288 110.144630,19.047565 110.334389,19.042843 
	C110.120506,18.862862 109.906631,18.682878 109.692749,18.502895 
	C111.354492,18.083361 113.820534,16.751348 114.547600,17.392218 
	C119.307243,21.587547 123.918198,26.016144 128.022049,30.841164 
	C128.938858,31.919102 128.369751,35.466984 127.235580,36.862385 
	C123.480324,41.482571 118.225441,42.246952 112.371689,42.210857 
	C108.351410,42.186069 103.358002,41.527500 100.122803,46.408028 
	C99.440926,47.024731 99.313164,47.514393 99.185410,48.004055 
	C97.115868,52.267075 95.485146,48.760765 94.115547,47.536949 
	C84.242210,38.714596 70.569809,37.489464 59.324600,44.854103 
	C48.996841,51.617897 44.793560,61.466530 46.387989,73.553818 
	C47.933193,85.267883 56.916969,94.751244 68.264214,97.403770 
	C79.569069,100.046387 91.529709,95.676285 98.307716,86.421791 
	C99.159538,85.258736 99.991211,84.080917 100.782448,82.979233 
	C114.623917,93.933250 109.743149,108.370766 108.039673,122.464180 
	C105.554741,119.272018 103.069801,116.079865 100.475273,112.746933 
	C97.060097,114.157753 93.618332,115.320412 90.466141,117.020126 
	C89.338806,117.628006 88.438301,119.466087 88.237442,120.858528 
	C86.006699,136.322739 88.140038,134.559158 72.292526,134.615601 
	C59.909367,134.659698 59.930916,134.627731 61.819557,122.122391 
	C62.037174,120.681473 61.849060,119.179283 61.849060,117.542702 
	C60.785316,117.207413 59.516018,117.128006 58.668495,116.489113 
	C52.303375,111.690842 47.377583,114.524902 42.239124,118.908035 
	C40.451363,120.433014 37.397301,120.473473 34.816521,120.568474 
	C33.426949,118.982201 32.142426,118.019386 30.857903,117.056564 
z"/>
<path fill="#070707" opacity="1.000000" stroke="none" 
	d="
M146.150635,163.401321 
	C138.487991,163.948288 138.487991,163.948288 138.471329,156.814987 
	C138.460251,152.073090 133.013138,145.466278 128.730789,145.000687 
	C125.762405,144.677948 118.335579,151.462387 118.287018,154.551041 
	C118.268692,155.716705 118.312630,156.883835 118.275757,158.048630 
	C118.194633,160.611389 118.995369,163.629089 114.741066,163.744003 
	C111.040962,163.843933 106.774017,163.755356 106.622726,159.292679 
	C106.389610,152.416138 107.315628,145.478592 108.090004,138.605255 
	C108.277390,136.942001 109.415947,134.906448 110.761452,133.929825 
	C120.529099,126.839981 118.838783,116.216393 119.442467,106.360275 
	C119.664841,102.729645 119.231163,99.036194 118.852066,95.396881 
	C118.336861,90.450905 117.355492,86.094856 112.902000,82.408195 
	C109.784515,79.827492 107.804146,75.010468 106.895668,70.847481 
	C105.817505,65.906937 106.287720,60.594059 106.375740,55.447475 
	C106.422134,52.735027 107.746895,51.014404 110.941505,50.715492 
	C117.715988,50.081623 118.266769,50.425652 118.261253,57.388088 
	C118.257477,62.154507 123.693306,68.579163 128.095062,69.010750 
	C131.123260,69.307671 138.406189,62.617950 138.464111,59.473640 
	C138.482513,58.475143 138.352829,57.463856 138.468246,56.479202 
	C138.749603,54.078884 137.455200,50.909435 141.803558,50.588608 
	C147.234665,50.187893 150.055557,51.427799 150.347687,55.786659 
	C151.088806,66.845413 151.720581,78.018692 140.782928,85.421074 
	C139.954330,85.981857 139.371338,87.284019 139.170532,88.336273 
	C136.805923,100.726631 136.636017,113.148293 139.117905,125.539040 
	C139.379959,126.847412 140.289871,128.326187 141.351379,129.125198 
	C147.878769,134.038513 150.500717,140.712021 150.592514,148.620621 
	C150.625381,151.451721 151.127518,154.419235 150.442383,157.073303 
	C149.863235,159.316788 147.878555,161.197433 146.150635,163.401321 
z"/>
<path fill="#070707" opacity="1.000000" stroke="none" 
	d="
M77.818047,84.035278 
	C69.564171,85.493378 64.677696,82.733765 61.181820,75.234489 
	C58.964531,70.478004 59.032845,67.451881 61.377224,62.843483 
	C64.692764,56.326050 68.513748,53.610439 76.167030,53.913002 
	C82.255402,54.153702 84.884636,56.461098 87.935608,61.167843 
	C91.673691,66.934593 92.386543,71.684967 87.795486,76.937759 
	C87.152878,77.673004 86.625099,78.586449 86.299828,79.507675 
	C84.930382,83.386200 82.194008,84.720459 77.818047,84.035278 
z"/>
<path fill="#0D0D0D" opacity="1.000000" stroke="none" 
	d="
M24.074581,110.389900 
	C27.695967,109.111061 29.099585,110.846695 28.954529,114.759987 
	C27.350843,113.667854 25.763832,112.183907 24.074581,110.389900 
z"/>
<path fill="#0D0D0D" opacity="1.000000" stroke="none" 
	d="
M105.879272,20.823503 
	C106.571770,21.393654 107.005348,22.065460 107.438927,22.737270 
	C106.203949,22.937555 104.968964,23.137840 103.413040,23.189999 
	C103.934845,22.336302 104.777603,21.630732 105.879272,20.823503 
z"/>
<path fill="#0D0D0D" opacity="1.000000" stroke="none" 
	d="
M30.746181,95.194214 
	C30.702669,97.440460 30.806656,100.198250 26.945444,98.668358 
	C28.027384,97.309212 29.236643,96.276390 30.746181,95.194214 
z"/>
<path fill="#0D0D0D" opacity="1.000000" stroke="none" 
	d="
M24.701443,99.955269 
	C24.546530,101.423492 26.175707,104.920593 21.894552,102.628975 
	C22.619305,101.523621 23.514931,100.771309 24.701443,99.955269 
z"/>
<path fill="#0B0B0B" opacity="1.000000" stroke="none" 
	d="
M30.998936,117.351074 
	C32.142426,118.019386 33.426949,118.982201 34.564503,120.334358 
	C33.325012,119.697662 32.232494,118.671623 30.998936,117.351074 
z"/>
<path fill="#E5E5E5" opacity="1.000000" stroke="none" 
	d="
M99.358269,47.905533 
	C99.313164,47.514393 99.440926,47.024731 99.815292,46.659378 
	C99.884972,47.124794 99.708046,47.465904 99.358269,47.905533 
z"/>
<path fill="#0D0D0D" opacity="1.000000" stroke="none" 
	d="
M22.988197,107.690125 
	C22.818298,107.459694 22.661598,107.197479 22.504898,106.935257 
	C22.625044,107.035789 22.745190,107.136322 22.962292,107.464218 
	C23.059248,107.691582 23.001398,107.658325 22.988197,107.690125 
z"/>
<path fill="#0D0D0D" opacity="1.000000" stroke="none" 
	d="
M109.661385,18.572887 
	C109.906631,18.682878 110.120506,18.862862 110.334389,19.042843 
	C110.144630,19.047565 109.954872,19.052288 109.628654,18.883608 
	C109.492195,18.710205 109.630020,18.642879 109.661385,18.572887 
z"/>
</svg>